<svg xmlns="http://www.w3.org/2000/svg" width="500" height="500">
  <path style="fill:#AF601A" d="M 74.6,319.4 l -61.2,-84.3 h 61.2 l 37.6,-48.7 c 0,0 1.7,-1.4 5.2,-3.9 c 3.6,-2.5 10.4,-2.9 10.4,-2.9 h 48.7 v -17.1 h 22.1 l 12.4,-29 h 16 l -6.4,16.1 l 9.1,12.9 H 288 v 17.1 h 95 c 0,0 8.4,0 13.7,4.5 c 7.2,6 8.1,10.8 8.1,10.8 l 15.4,40.2 h 34.1 l 32.3,84.3 c 0,0 -37.4,-23 -97.2,-20 c -48.7,2.9 -67.7,19.6 -123.2,19.6 c -30.3,0 -75.5,-15.2 -110.3,-15.8 C 130.3,302.8 88.6,313.7 74.6,319.4
M 100.7,235.1 h 59.9 v -36.5 h -23.4 c 0,0 -4.8,0.6 -10.3,4.1 c -3.3,2 -9.9,11 -9.9,11 L 100.7,235.1 z
M 254.4,235.1 h 62.2 v -36.5 h -62.2 V 235.1 z
M 386.7,207.5 c 0,0 -1.6,-4 -4.2,-5.9 c -3.5,-2.4 -6.7,-3 -6.7,-3 h -43.4 v 36.5 h 64.8 L 386.7,207.5 z
M 176.5,235.1 h 62.6 l -0.2,-36.5 h -62.4 V 235.1 z"/>
</svg>
