<?xml version="1.0" encoding="ISO-8859-1"?>
<!DOCTYPE svg PUBLIC "-//W3C//DTD SVG 1.1//EN" "http://www.w3.org/Graphics/SVG/1.1/DTD/svg11.dtd">
<svg xmlns="http://www.w3.org/2000/svg" width="500" height="500" viewBox="0 0 500 500">
  <metadata>Help Help</metadata>
  <g stroke="#AF601A" fill="none" stroke-width="20" stroke-linecap="round"> 
    <circle cx="250" cy="250" r="140" />
    <path d="m 130,130 l 240,240" />
    <path d="m 130,130 l 240,240" transform="rotate( 45 250,250)" />
    <path d="m 130,130 l 240,240" transform="rotate( 90 250,250)" />
    <path d="m 130,130 l 240,240" transform="rotate(135 250,250)" />
  </g>
  <g stroke="#5D6D7E" fill="#5D6D7E" stroke-width="10" stroke-linecap="round"> 
    <path d="M 250,280
	     c 0,-30 50,-50 70,-30
	     c 30,30 10,25 -10,25
	     l -20,0 l -10,20 l 10, 20 l 20,0
	     c 50,0 15,25 10,25
	     c -20,5 -60,20 -70,-30
	     l -100,0
	     c -20,-0 -25,-25 0,-30
	     z" />
  </g>
</svg>
