<svg xmlns="http://www.w3.org/2000/svg" height="150pt" width="150pt">
  <g style="fill:#AF601A;">
    <rect y="115" x="61" height="23" width="60"/>
    <rect y="33" x="83" height="15" width="15"/>
    <path
       transform="matrix(0.975516,0,0,1,-51,-55)"
       d="M 175,169 A 31 4 0 1 1 114,169 A 31 4 0 1 1 175,169 z"/>
  </g>
  <g style="fill:none;stroke:#AF601A;fill-rule:evenodd">
    <path
       d="M 76,111 C 81,54 81,54 81,54
       M 106,112 C 101,54 101,54 101,54 L 101,54 L 101,54
       M 81,54 C 101,54 101,54 101,54 L 101,54
       M 76,111 L 104,94 L 102,92 L 79,79 L 102,64 L 102,64
       M 80,64 L 102,79 L 78,94 L 106,111
       M 80,66 L 102,64 L 102,64
       M 91,49 C 91,54 91,54 91,54"/>
  </g>
</svg>
